<svg width="1652" height="993" xmlns="http://www.w3.org/2000/svg" xmlns:xlink="http://www.w3.org/1999/xlink" xml:space="preserve" overflow="hidden"><defs><clipPath id="clip0"><rect x="2392" y="774" width="1652" height="993"/></clipPath></defs><g clip-path="url(#clip0)" transform="translate(-2392 -774)"><rect x="2393" y="775" width="1649" height="990" fill="#FFFFFF"/><g><path d="M2578.5 1472.55 3992.5 1472.55M2578.5 1382.55 3992.5 1382.55M2578.5 1292.54 3992.5 1292.54M2578.5 1202.54 3992.5 1202.54M2578.5 1113.54 3992.5 1113.54M2578.5 1023.5 3992.5 1023.5" stroke="#D9D9D9" stroke-width="3.4375" stroke-linejoin="round" stroke-miterlimit="10" fill="none"/></g><g><path d="M2675.09 1113.04 2764.09 1113.04 2764.09 1562 2675.09 1562ZM2958.1 1113.04 3047.1 1113.04 3047.1 1562 2958.1 1562ZM3241.11 1203.04 3329.11 1203.04 3329.11 1562 3241.11 1562ZM3524.12 1293.04 3612.12 1293.04 3612.12 1562 3524.12 1562ZM3806.12 1382.05 3895.13 1382.05 3895.13 1562 3806.12 1562Z" fill="#156082"/></g><g><path d="M2578.5 1562.5 3992.5 1562.5" stroke="#D9D9D9" stroke-width="3.4375" stroke-linejoin="round" stroke-miterlimit="10" fill="none" fill-rule="evenodd"/></g><g><text fill="#595959" font-family="Aptos Narrow,Aptos Narrow_MSFontService,sans-serif" font-weight="400" font-stretch="semi-condensed" font-size="41" transform="matrix(1 0 0 1 2519.48 1574)">0</text></g><g><text fill="#595959" font-family="Aptos Narrow,Aptos Narrow_MSFontService,sans-serif" font-weight="400" font-stretch="semi-condensed" font-size="41" transform="matrix(1 0 0 1 2519.48 1484)">1</text></g><g><text fill="#595959" font-family="Aptos Narrow,Aptos Narrow_MSFontService,sans-serif" font-weight="400" font-stretch="semi-condensed" font-size="41" transform="matrix(1 0 0 1 2519.48 1394)">2</text></g><g><text fill="#595959" font-family="Aptos Narrow,Aptos Narrow_MSFontService,sans-serif" font-weight="400" font-stretch="semi-condensed" font-size="41" transform="matrix(1 0 0 1 2519.48 1304)">3</text></g><g><text fill="#595959" font-family="Aptos Narrow,Aptos Narrow_MSFontService,sans-serif" font-weight="400" font-stretch="semi-condensed" font-size="41" transform="matrix(1 0 0 1 2519.48 1215)">4</text></g><g><text fill="#595959" font-family="Aptos Narrow,Aptos Narrow_MSFontService,sans-serif" font-weight="400" font-stretch="semi-condensed" font-size="41" transform="matrix(1 0 0 1 2519.48 1125)">5</text></g><g><text fill="#595959" font-family="Aptos Narrow,Aptos Narrow_MSFontService,sans-serif" font-weight="400" font-stretch="semi-condensed" font-size="41" transform="matrix(1 0 0 1 2519.48 1035)">6</text></g><g><text fill="#595959" font-family="Aptos Narrow,Aptos Narrow_MSFontService,sans-serif" font-weight="400" font-stretch="semi-condensed" font-size="41" transform="matrix(1 0 0 1 2693.56 1627)">0.1</text></g><g><text fill="#595959" font-family="Aptos Narrow,Aptos Narrow_MSFontService,sans-serif" font-weight="400" font-stretch="semi-condensed" font-size="41" transform="matrix(1 0 0 1 2976.29 1627)">0.2</text></g><g><text fill="#595959" font-family="Aptos Narrow,Aptos Narrow_MSFontService,sans-serif" font-weight="400" font-stretch="semi-condensed" font-size="41" transform="matrix(1 0 0 1 3259.01 1627)">0.3</text></g><g><text fill="#595959" font-family="Aptos Narrow,Aptos Narrow_MSFontService,sans-serif" font-weight="400" font-stretch="semi-condensed" font-size="41" transform="matrix(1 0 0 1 3541.74 1627)">0.4</text></g><g><text fill="#595959" font-family="Aptos Narrow,Aptos Narrow_MSFontService,sans-serif" font-weight="400" font-stretch="semi-condensed" font-size="41" transform="matrix(1 0 0 1 3824.46 1627)">0.5</text></g><g><text fill="#595959" font-family="Aptos Narrow,Aptos Narrow_MSFontService,sans-serif" font-weight="400" font-stretch="semi-condensed" font-size="46" transform="matrix(6.12323e-17 -1 1 6.12323e-17 2492.78 1389)">Frequency </text></g><g><text fill="#595959" font-family="Aptos Narrow,Aptos Narrow_MSFontService,sans-serif" font-weight="400" font-stretch="semi-condensed" font-size="46" transform="matrix(1 0 0 1 3138.3 1695)">Saturation Level</text></g><g><text fill="#595959" font-family="Aptos Narrow,Aptos Narrow_MSFontService,sans-serif" font-weight="400" font-stretch="semi-condensed" font-size="64" transform="matrix(1 0 0 1 2629.1 870)">Misclassified Saturated Logos Across Different </text></g><g><text fill="#595959" font-family="Aptos Narrow,Aptos Narrow_MSFontService,sans-serif" font-weight="400" font-stretch="semi-condensed" font-size="64" transform="matrix(1 0 0 1 2999.05 949)">Saturation Levels</text></g><rect x="2393.5" y="775.5" width="1649" height="990" stroke="#D9D9D9" stroke-width="3.4375" stroke-linejoin="round" stroke-miterlimit="10" fill="none"/></g></svg>